# xmcd
#
# Track frame offsets:
#	150
#	19412
#	34344
#	49798
#	68342
#	90759
#	109357
#	127918
#	146523
#	162707
#	180958
#	197518
#
# Disc length: 2873 seconds
#
# Revision: 0
# Processed by: cddbd v1.5.1PL0 Copyright (c) Steve Scherf et al.
# Submitted via: dBpowerAMP V4.0
#
DISCID=990b370c
DTITLE=Mal Pope - Dream Out Loud
DYEAR=2003
DGENRE=
TTITLE0=Breathe
TTITLE1=Your Words
TTITLE2=Mr Maybe
TTITLE3=One In A Million
TTITLE4=Couldn't Love Me More
TTITLE5=Dream Out Loud
TTITLE6=Light and Life
TTITLE7=Getting Used To Living Without You
TTITLE8=The Kiss
TTITLE9=Lose It All
TTITLE10=Please Let It Be Me
TTITLE11=Sad Eyes
EXTD=
EXTT0=
EXTT1=
EXTT2=
EXTT3=
EXTT4=
EXTT5=
EXTT6=
EXTT7=
EXTT8=
EXTT9=
EXTT10=
EXTT11=
PLAYORDER=
